<svg xmlns="http://www.w3.org/2000/svg" width="24" height="24" viewBox="0 0 24 24">
  <g id="Interface-Essential_Date_Calendar_calendar-3" data-name="Interface-Essential / Date/Calendar / calendar-3" transform="translate(-303.005 -2847)">
    <g id="Group_266" data-name="Group 266">
      <g id="calendar-3">
        <path id="Rectangle-path_79" data-name="Rectangle-path 79" d="M303.755,2852.25a1.5,1.5,0,0,1,1.5-1.5h19.5a1.5,1.5,0,0,1,1.5,1.5v16.5a1.5,1.5,0,0,1-1.5,1.5h-19.5a1.5,1.5,0,0,1-1.5-1.5Z" fill="none" stroke="#000" stroke-linecap="round" stroke-linejoin="round" stroke-width="1.5"/>
        <path id="Shape_1209" data-name="Shape 1209" d="M303.755,2856.75h22.5" fill="none" stroke="#000" stroke-linecap="round" stroke-linejoin="round" stroke-width="1.5"/>
        <path id="Shape_1210" data-name="Shape 1210" d="M309.755,2853v-5.25" fill="none" stroke="#000" stroke-linecap="round" stroke-linejoin="round" stroke-width="1.5"/>
        <path id="Shape_1211" data-name="Shape 1211" d="M320.255,2853v-5.25" fill="none" stroke="#000" stroke-linecap="round" stroke-linejoin="round" stroke-width="1.5"/>
        <path id="Shape_1212" data-name="Shape 1212" d="M308.63,2860.5a.375.375,0,1,0,.375.375.375.375,0,0,0-.375-.375" fill="none" stroke="#000" stroke-linecap="round" stroke-linejoin="round" stroke-width="1.5"/>
        <path id="Shape_1213" data-name="Shape 1213" d="M308.63,2865.75a.375.375,0,1,0,.375.375.375.375,0,0,0-.375-.375" fill="none" stroke="#000" stroke-linecap="round" stroke-linejoin="round" stroke-width="1.5"/>
        <path id="Shape_1214" data-name="Shape 1214" d="M315.005,2860.5a.375.375,0,1,0,.375.375.375.375,0,0,0-.375-.375" fill="none" stroke="#000" stroke-linecap="round" stroke-linejoin="round" stroke-width="1.5"/>
        <path id="Shape_1215" data-name="Shape 1215" d="M315.005,2865.75a.375.375,0,1,0,.375.375.375.375,0,0,0-.375-.375" fill="none" stroke="#000" stroke-linecap="round" stroke-linejoin="round" stroke-width="1.5"/>
        <path id="Shape_1216" data-name="Shape 1216" d="M321.38,2860.5a.375.375,0,1,0,.375.375.375.375,0,0,0-.375-.375" fill="none" stroke="#000" stroke-linecap="round" stroke-linejoin="round" stroke-width="1.5"/>
        <path id="Shape_1217" data-name="Shape 1217" d="M321.38,2865.75a.375.375,0,1,0,.375.375.375.375,0,0,0-.375-.375" fill="none" stroke="#000" stroke-linecap="round" stroke-linejoin="round" stroke-width="1.5"/>
      </g>
    </g>
  </g>
</svg>
