<svg xmlns="http://www.w3.org/2000/svg" width="24" height="24" viewBox="0 0 24 24">
  <g id="Interface-Essential_Controls_settings-vertical" data-name="Interface-Essential / Controls / settings-vertical" transform="translate(-351.005 -1807)">
    <g id="Group_174" data-name="Group 174">
      <g id="settings-vertical">
        <path id="Rectangle-path_67" data-name="Rectangle-path 67" d="M351.755,1809.25a1.5,1.5,0,0,1,1.5-1.5h19.5a1.5,1.5,0,0,1,1.5,1.5v19.5a1.5,1.5,0,0,1-1.5,1.5h-19.5a1.5,1.5,0,0,1-1.5-1.5Z" fill="none" stroke="#000" stroke-linecap="round" stroke-linejoin="round" stroke-width="1.5"/>
        <path id="Shape_796" data-name="Shape 796" d="M366.755,1818.27v-6" fill="none" stroke="#000" stroke-linecap="round" stroke-linejoin="round" stroke-width="1.5"/>
        <path id="Shape_797" data-name="Shape 797" d="M366.755,1825.77v-3" fill="none" stroke="#000" stroke-linecap="round" stroke-linejoin="round" stroke-width="1.5"/>
        <path id="Shape_798" data-name="Shape 798" d="M369.005,1820.52a2.25,2.25,0,1,1-2.25-2.25A2.25,2.25,0,0,1,369.005,1820.52Z" fill="none" stroke="#000" stroke-linecap="round" stroke-linejoin="round" stroke-width="1.5"/>
        <path id="Shape_799" data-name="Shape 799" d="M359.255,1816.77v9" fill="none" stroke="#000" stroke-linecap="round" stroke-linejoin="round" stroke-width="1.5"/>
        <path id="Shape_800" data-name="Shape 800" d="M361.505,1814.52a2.25,2.25,0,1,0-.659,1.591,2.25,2.25,0,0,0,.659-1.591Z" fill="none" stroke="#000" stroke-linecap="round" stroke-linejoin="round" stroke-width="1.5"/>
      </g>
    </g>
  </g>
</svg>
