<svg xmlns="http://www.w3.org/2000/svg" width="22.416" height="18" viewBox="0 0 22.416 18">
  <g id="Wayfinding__x2F__Cloak-Lockers-Room__x2F__locker-room-hanger_1_" transform="translate(-0.092 -0.05)">
    <g id="Group_47_1_">
      <g id="Regular_47_1_">
        <path id="Shape_206_1_" d="M20.3,17.3a1.425,1.425,0,0,0,1.2-.6,1.7,1.7,0,0,0,.2-1.4,10.7,10.7,0,0,0-10.4-7,10.836,10.836,0,0,0-10.4,7,1.7,1.7,0,0,0,.2,1.4,1.425,1.425,0,0,0,1.2.6Z" fill="none" stroke="#000" stroke-linecap="round" stroke-linejoin="round" stroke-width="1.5"/>
        <path id="Shape_207_1_" d="M13.5,3A2.22,2.22,0,0,0,11.3.8,2.242,2.242,0,0,0,9,3a2.22,2.22,0,0,0,2.2,2.2v3" fill="none" stroke="#000" stroke-linecap="round" stroke-linejoin="round" stroke-width="1.5"/>
      </g>
    </g>
  </g>
</svg>
