<svg xmlns="http://www.w3.org/2000/svg" width="47" height="36.5" viewBox="0 0 47 36.5">
  <g id="Social-Medias-Rewards-Rating__x2F__Social-Profile__x2F__social-profile-bubble_1_" transform="translate(-0.5 -0.5)">
    <g id="Group_2_1_">
      <g id="social-profile-bubble_1_">
        <path id="Shape_2_1_" d="M30.1,12H36" fill="none" stroke="#000" stroke-linecap="round" stroke-linejoin="round" stroke-width="2"/>
        <path id="Shape_3_1_" d="M30,18H40.5" fill="none" stroke="#000" stroke-linecap="round" stroke-linejoin="round" stroke-width="2"/>
        <path id="Oval_1_" d="M17.7,16.5A4.5,4.5,0,1,0,13.2,12,4.481,4.481,0,0,0,17.7,16.5Z" fill="none" stroke="#000" stroke-linecap="round" stroke-linejoin="round" stroke-width="2"/>
        <path id="Shape_4_1_" d="M25.5,22.5a9.01,9.01,0,0,0-15.6,0" fill="none" stroke="#000" stroke-linecap="round" stroke-linejoin="round" stroke-width="2"/>
        <path id="Shape_5_1_" d="M31.5,1.5h-15a14.98,14.98,0,0,0-15,15,14.5,14.5,0,0,0,3.7,9.7L1.5,36l14.7-4.5H31.5a15,15,0,0,0,0-30Z" fill="none" stroke="#000" stroke-linecap="round" stroke-linejoin="round" stroke-width="2"/>
      </g>
    </g>
  </g>
</svg>
