<svg xmlns="http://www.w3.org/2000/svg" width="18.001" height="24.013" viewBox="0 0 18.001 24.013">
  <g id="Hotels-Spas_Rating_Reviews_rating-booklet" data-name="Hotels-Spas / Rating/Reviews / rating-booklet" transform="translate(-185.999 -243.986)">
    <g id="Group_17" data-name="Group 17">
      <g id="rating-booklet">
        <path id="Shape_98" data-name="Shape 98" d="M200.25,249.249v-3a1.5,1.5,0,0,0-1.9-1.449l-10.5,2.92a1.6,1.6,0,0,0-1.1,1.529" fill="none" stroke="#000" stroke-linecap="round" stroke-linejoin="round" stroke-width="1.5"/>
        <path id="Shape_99" data-name="Shape 99" d="M186.75,265.749a1.5,1.5,0,0,0,1.5,1.5h13.5a1.5,1.5,0,0,0,1.5-1.5V250.743a1.5,1.5,0,0,0-1.5-1.5l-15,.006Z" fill="none" stroke="#000" stroke-linecap="round" stroke-linejoin="round" stroke-width="1.5"/>
        <path id="Shape_100" data-name="Shape 100" d="M195.531,252.572l1.248,2.457h2.127a.583.583,0,0,1,.419,1l-1.953,1.922,1.082,2.485a.589.589,0,0,1-.839.736L195,259.7l-2.615,1.47a.589.589,0,0,1-.839-.736l1.082-2.485-1.953-1.923a.583.583,0,0,1,.419-1h2.127l1.249-2.454a.6.6,0,0,1,1.061,0Z" fill="none" stroke="#000" stroke-linecap="round" stroke-linejoin="round" stroke-width="1.5"/>
        <path id="Shape_101" data-name="Shape 101" d="M191.25,264.249h7.5" fill="none" stroke="#000" stroke-linecap="round" stroke-linejoin="round" stroke-width="1.5"/>
      </g>
    </g>
  </g>
</svg>
