<svg xmlns="http://www.w3.org/2000/svg" width="45.558" height="47.044" viewBox="0 0 45.558 47.044">
  <g id="Hotels-Spas__x2F__Reception__x2F__reception-bell-call_1_" transform="translate(-0.5 -0.456)">
    <g id="Group_21_1_">
      <g id="reception-bell-call_1_">
        <path id="Shape_132_1_" d="M45,8.2l-.5,8.3a3.106,3.106,0,0,1-6.2-.4l.3-5.8L26,23.1a2.916,2.916,0,0,1-2.9.8A3.155,3.155,0,0,1,21,21.8a2.916,2.916,0,0,1,.8-2.9l9.5-9.6L29.2,7.2a8.657,8.657,0,0,1-2.6-5.7" fill="none" stroke="#000" stroke-linecap="round" stroke-linejoin="round" stroke-width="2"/>
        <path id="Shape_133_1_" d="M13.4,28.5v6" fill="none" stroke="#000" stroke-linecap="round" stroke-linejoin="round" stroke-width="2"/>
        <path id="Shape_134_1_" d="M5.9,28.5h15" fill="none" stroke="#000" stroke-linecap="round" stroke-linejoin="round" stroke-width="2"/>
        <path id="Shape_135_1_" d="M3,46.5A1.606,1.606,0,0,1,1.9,46a1.746,1.746,0,0,1-.4-1.2,12.024,12.024,0,0,1,23.8,0,1.374,1.374,0,0,1-.4,1.2,1.606,1.606,0,0,1-1.1.5Z" fill="none" stroke="#000" stroke-linecap="round" stroke-linejoin="round" stroke-width="2"/>
      </g>
    </g>
  </g>
</svg>
