<svg xmlns="http://www.w3.org/2000/svg" width="47" height="47" viewBox="0 0 47 47">
  <g id="Transportation__x2F__Dashboard-Symbols__x2F__car-dashboard-steering_1_" transform="translate(-0.5 -0.5)">
    <g id="Group_151_1_">
      <g id="car-dashboard-steering_1_">
        <path id="Oval_179_1_" d="M24,46.5A22.5,22.5,0,1,0,1.5,24,22.534,22.534,0,0,0,24,46.5Z" fill="none" stroke="#000" stroke-linecap="round" stroke-linejoin="round" stroke-width="2"/>
        <path id="Oval_180_1_" d="M24,40.5A16.5,16.5,0,1,0,7.5,24,16.516,16.516,0,0,0,24,40.5Z" fill="none" stroke="#000" stroke-linecap="round" stroke-linejoin="round" stroke-width="2"/>
        <path id="Shape_1148_1_" d="M40.2,20.9A49.821,49.821,0,0,0,24,18,49.821,49.821,0,0,0,7.8,20.9" fill="none" stroke="#000" stroke-linecap="round" stroke-linejoin="round" stroke-width="2"/>
        <path id="Shape_1149_1_" d="M7.8,27c7.2-1.3,13,3,11.8,12.9" fill="none" stroke="#000" stroke-linecap="round" stroke-linejoin="round" stroke-width="2"/>
        <path id="Shape_1150_1_" d="M40.2,27c-7.2-1.3-13,3-11.8,12.9" fill="none" stroke="#000" stroke-linecap="round" stroke-linejoin="round" stroke-width="2"/>
        <path id="Shape_1151_1_" d="M24,24a.789.789,0,0,1,.8.8" fill="none" stroke="#000" stroke-linecap="round" stroke-linejoin="round" stroke-width="2"/>
        <path id="Shape_1152_1_" d="M23.2,24.8A.789.789,0,0,1,24,24" fill="none" stroke="#000" stroke-linecap="round" stroke-linejoin="round" stroke-width="2"/>
        <path id="Shape_1153_1_" d="M24,25.5a.789.789,0,0,1-.8-.8" fill="none" stroke="#000" stroke-linecap="round" stroke-linejoin="round" stroke-width="2"/>
        <path id="Shape_1154_1_" d="M24.8,24.8a.789.789,0,0,1-.8.8" fill="none" stroke="#000" stroke-linecap="round" stroke-linejoin="round" stroke-width="2"/>
      </g>
    </g>
  </g>
</svg>
