<svg xmlns="http://www.w3.org/2000/svg" width="22.848" height="22.577" viewBox="0 0 22.848 22.577"><g fill="none" stroke="#000" stroke-linecap="round" stroke-linejoin="round" stroke-width="1.5"><path d="M6.227 3.627a6.665 6.665 0 0 0-2.5 2.5M5.327.927a6.482 6.482 0 0 0-4.4 4.4M3.927 17.327h15M18.927 17.327s-1.5-1.3-1.5-6c0-3.8-2.6-7.1-6-7.1s-6 3.3-6 7.1c0 4.7-1.5 6-1.5 6M12.927 20.327a1.5 1.5 0 1 1-3 0M11.327 4.327v-2M16.527 3.627a4.863 4.863 0 0 1 1.4 1.1 4.863 4.863 0 0 1 1.1 1.4M17.427.927a6.39 6.39 0 0 1 4.5 4.5"/></g></svg>