<svg xmlns="http://www.w3.org/2000/svg" width="24" height="19.5" viewBox="0 0 24 19.5">
  <g id="Users__x2F__Geometric-Close-Up-Single-User-Neutral__x2F__single-neutral-id-card-4_1_" transform="translate(0.05 -0.05)">
    <g id="Group_304_1_">
      <g id="Regular_304_1_">
        <path id="Oval_462_1_" d="M8.2,9a2.647,2.647,0,0,0,2.6-2.6A2.582,2.582,0,0,0,8.2,3.8,2.647,2.647,0,0,0,5.6,6.4,2.647,2.647,0,0,0,8.2,9Z" fill="none" stroke="#000" stroke-linecap="round" stroke-linejoin="round" stroke-width="1.5"/>
        <path id="Shape_1217_1_" d="M3.8,14.2a4.5,4.5,0,0,1,9,0Z" fill="none" stroke="#000" stroke-linecap="round" stroke-linejoin="round" stroke-width="1.5"/>
        <path id="Shape_1218_1_" d="M14.2,6.8h4.5" fill="none" stroke="#000" stroke-linecap="round" stroke-linejoin="round" stroke-width="1.5"/>
        <path id="Shape_1219_1_" d="M14.2,9.8h6" fill="none" stroke="#000" stroke-linecap="round" stroke-linejoin="round" stroke-width="1.5"/>
        <path id="Shape_1220_1_" d="M21.8.8H2.2A1.538,1.538,0,0,0,.7,2.3v15a1.538,1.538,0,0,0,1.5,1.5h3a1.538,1.538,0,0,1,1.5-1.5,1.538,1.538,0,0,1,1.5,1.5h7.5a1.5,1.5,0,0,1,3,0h3a1.538,1.538,0,0,0,1.5-1.5V2.3A1.394,1.394,0,0,0,21.8.8Z" fill="none" stroke="#000" stroke-linecap="round" stroke-linejoin="round" stroke-width="1.5"/>
      </g>
    </g>
  </g>
</svg>
