<svg xmlns="http://www.w3.org/2000/svg" width="47" height="47" viewBox="0 0 47 47">
  <g id="Transportation__x2F__Bus__x2F__bus-2_1_" transform="translate(-0.5 -0.5)">
    <g id="Group_88_1_">
      <g id="bus-2_1_">
        <path id="Shape_592_1_" d="M10.5,40.4v3.1a3,3,0,0,0,6,0v-3" fill="none" stroke="#000" stroke-linecap="round" stroke-linejoin="round" stroke-width="2"/>
        <path id="Shape_593_1_" d="M37.5,40.4v3.1a3,3,0,0,1-6,0v-3" fill="none" stroke="#000" stroke-linecap="round" stroke-linejoin="round" stroke-width="2"/>
        <path id="Shape_594_1_" d="M7.5,10.5h-3a2.946,2.946,0,0,0-3,3v6" fill="none" stroke="#000" stroke-linecap="round" stroke-linejoin="round" stroke-width="2"/>
        <path id="Shape_595_1_" d="M40.5,10.5h3a2.946,2.946,0,0,1,3,3v6" fill="none" stroke="#000" stroke-linecap="round" stroke-linejoin="round" stroke-width="2"/>
        <path id="Rectangle-path_15_1_" d="M7.5,5.5a4.012,4.012,0,0,1,4-4h25a4.012,4.012,0,0,1,4,4v31a4.012,4.012,0,0,1-4,4h-25a4.012,4.012,0,0,1-4-4Z" fill="none" stroke="#000" stroke-linecap="round" stroke-linejoin="round" stroke-width="2"/>
        <path id="Shape_596_1_" d="M40.5,28.5H7.5" fill="none" stroke="#000" stroke-linecap="round" stroke-linejoin="round" stroke-width="2"/>
        <path id="Shape_597_1_" d="M28.5,34.5h6" fill="none" stroke="#000" stroke-linecap="round" stroke-linejoin="round" stroke-width="2"/>
        <path id="Shape_598_1_" d="M13.5,34.5h6" fill="none" stroke="#000" stroke-linecap="round" stroke-linejoin="round" stroke-width="2"/>
        <path id="Shape_599_1_" d="M19.5,7.5h9" fill="none" stroke="#000" stroke-linecap="round" stroke-linejoin="round" stroke-width="2"/>
      </g>
    </g>
  </g>
</svg>
