<svg xmlns="http://www.w3.org/2000/svg" width="22.848" height="22.577" viewBox="0 0 22.848 22.577">
  <g id="Interface-Essential__x2F__Alert__x2F__alarm-bell-ring_1_" transform="translate(0.127 0.127)">
    <g id="Group_259_1_">
      <g id="alarm-bell-ring_1_">
        <path id="Shape_1173_1_" d="M6.1,3.5A6.665,6.665,0,0,0,3.6,6" fill="none" stroke="#000" stroke-linecap="round" stroke-linejoin="round" stroke-width="1.5"/>
        <path id="Shape_1174_1_" d="M5.2.8A6.482,6.482,0,0,0,.8,5.2" fill="none" stroke="#000" stroke-linecap="round" stroke-linejoin="round" stroke-width="1.5"/>
        <path id="Shape_1175_1_" d="M3.8,17.2h15" fill="none" stroke="#000" stroke-linecap="round" stroke-linejoin="round" stroke-width="1.5"/>
        <path id="Shape_1176_1_" d="M18.8,17.2s-1.5-1.3-1.5-6c0-3.8-2.6-7.1-6-7.1s-6,3.3-6,7.1c0,4.7-1.5,6-1.5,6" fill="none" stroke="#000" stroke-linecap="round" stroke-linejoin="round" stroke-width="1.5"/>
        <path id="Shape_1177_1_" d="M12.8,20.2a1.5,1.5,0,1,1-3,0" fill="none" stroke="#000" stroke-linecap="round" stroke-linejoin="round" stroke-width="1.5"/>
        <path id="Shape_1178_1_" d="M11.2,4.2v-2" fill="none" stroke="#000" stroke-linecap="round" stroke-linejoin="round" stroke-width="1.5"/>
        <path id="Shape_1179_1_" d="M16.4,3.5a4.863,4.863,0,0,1,1.4,1.1A4.863,4.863,0,0,1,18.9,6" fill="none" stroke="#000" stroke-linecap="round" stroke-linejoin="round" stroke-width="1.5"/>
        <path id="Shape_1180_1_" d="M17.3.8a6.39,6.39,0,0,1,4.5,4.5" fill="none" stroke="#000" stroke-linecap="round" stroke-linejoin="round" stroke-width="1.5"/>
      </g>
    </g>
  </g>
</svg>
