<svg xmlns="http://www.w3.org/2000/svg" width="23.9" height="23.9" viewBox="0 0 23.9 23.9">
  <g id="Emails__x2F__Read-Email__x2F__read-email-circle_1_" transform="translate(-0.05 -0.05)">
    <g id="Group_9_1_">
      <g id="read-email-circle_1_">
        <path id="Oval_3_1_" d="M12,23.2A11.2,11.2,0,1,0,.8,12,11.182,11.182,0,0,0,12,23.2Z" fill="none" stroke="#000" stroke-linecap="round" stroke-linejoin="round" stroke-width="1.5"/>
        <path id="Rectangle-path_2_1_" d="M5.2,8.2A1.538,1.538,0,0,1,6.7,6.7H17.2a1.538,1.538,0,0,1,1.5,1.5v7.5a1.538,1.538,0,0,1-1.5,1.5H6.8a1.538,1.538,0,0,1-1.5-1.5V8.2Z" fill="none" stroke="#000" stroke-linecap="round" stroke-linejoin="round" stroke-width="1.5"/>
        <path id="Shape_29_1_" d="M5.2,8.2,12,12l6.8-3.8" fill="none" stroke="#000" stroke-linecap="round" stroke-linejoin="round" stroke-width="1.5"/>
      </g>
    </g>
  </g>
</svg>
