<svg xmlns="http://www.w3.org/2000/svg" width="23.9" height="23.9" viewBox="0 0 23.9 23.9">
  <g id="Users__x2F__Geometric-Close-Up-Single-User-Neutral__x2F__single-neutral-circle_1_" transform="translate(-0.05 -0.05)">
    <g id="Group_297_1_">
      <g id="Regular_297_1_">
        <path id="Oval_454_1_" d="M12,15a5.228,5.228,0,0,0,5.2-5.2A5.315,5.315,0,0,0,12,4.5,5.228,5.228,0,0,0,6.8,9.7,5.315,5.315,0,0,0,12,15Z" fill="none" stroke="#000" stroke-linecap="round" stroke-linejoin="round" stroke-width="1.5"/>
        <path id="Shape_1194_1_" d="M18.9,20.9A9.444,9.444,0,0,0,12,18a9.444,9.444,0,0,0-6.9,2.9" fill="none" stroke="#000" stroke-linecap="round" stroke-linejoin="round" stroke-width="1.5"/>
        <path id="Oval_455_1_" d="M12,23.2A11.2,11.2,0,1,0,.8,12,11.182,11.182,0,0,0,12,23.2Z" fill="none" stroke="#000" stroke-linecap="round" stroke-linejoin="round" stroke-width="1.5"/>
      </g>
    </g>
  </g>
</svg>
