<svg xmlns="http://www.w3.org/2000/svg" width="24.064" height="23.974" viewBox="0 0 24.064 23.974">
  <g id="Phones-Mobile-Devices__x2F__Phone__x2F__phone-circle_1_" transform="translate(0.072 0.024)">
    <g id="Group_3_1_">
      <g id="phone-circle_1_">
        <path id="Shape_16_1_" d="M14.1,17.7h0a3.3,3.3,0,0,0,4-.4l.5-.5a1.088,1.088,0,0,0,0-1.5l-1.9-1.9a1.088,1.088,0,0,0-1.5,0h0a1.088,1.088,0,0,1-1.5,0l-3-3a1.088,1.088,0,0,1,0-1.5h0a1.088,1.088,0,0,0,0-1.5l-2-2A.908.908,0,0,0,8,5.1a1.135,1.135,0,0,0-.8.3l-.4.4a3.057,3.057,0,0,0-.4,4h0a28.952,28.952,0,0,0,7.7,7.9Z" fill="none" stroke="#000" stroke-linecap="round" stroke-linejoin="round" stroke-width="1.5"/>
        <path id="Shape_17_1_" d="M21,18.8A11.322,11.322,0,0,0,6.9,1.9,11.25,11.25,0,0,0,12,23.2c4.4,0,6.4-2.1,5.2-5.3" fill="none" stroke="#000" stroke-linecap="round" stroke-linejoin="round" stroke-width="1.5"/>
      </g>
    </g>
  </g>
</svg>
