<svg xmlns="http://www.w3.org/2000/svg" width="24.411" height="24.511" viewBox="0 0 24.411 24.511">
  <g id="Users__x2F__Geometric-Full-Body-Single-User-Neutral__x2F__single-neutral-find_1_" transform="translate(0.05 0.15)">
    <g id="Group_15_1_">
      <g id="Regular_15_1_">
        <path id="Oval_12_1_" d="M10.5,20.2A9.8,9.8,0,1,0,.7,10.4,9.816,9.816,0,0,0,10.5,20.2Z" fill="none" stroke="#000" stroke-linecap="round" stroke-linejoin="round" stroke-width="1.5"/>
        <path id="Shape_64_1_" d="M17.4,17.4l5.9,5.9" fill="none" stroke="#000" stroke-linecap="round" stroke-linejoin="round" stroke-width="1.5"/>
        <path id="Oval_13_1_" d="M10.5,7.5a2.22,2.22,0,0,0,2.2-2.2A2.308,2.308,0,0,0,10.5,3,2.308,2.308,0,0,0,8.2,5.2,2.4,2.4,0,0,0,10.5,7.5Z" fill="none" stroke="#000" stroke-linecap="round" stroke-linejoin="round" stroke-width="1.5"/>
        <path id="Shape_65_1_" d="M12.1,17.2l.6-3.7h1.5v-.8a3.8,3.8,0,0,0-7.6,0v.8H8.1l.6,3.7" fill="none" stroke="#000" stroke-linecap="round" stroke-linejoin="round" stroke-width="1.5"/>
      </g>
    </g>
  </g>
</svg>
