<svg xmlns="http://www.w3.org/2000/svg" width="47" height="47.277" viewBox="0 0 47 47.277">
  <g id="Travel__x2F__Travel-Metaphor__x2F__travel-crossroad-direction-board_1_" transform="translate(-0.5 -0.5)">
    <g id="Group_1_">
      <g id="travel-crossroad-direction-board_1_">
        <path id="Shape_1_" d="M1.5,46.5a22.5,22.5,0,0,1,45,0" fill="none" stroke="#000" stroke-linecap="round" stroke-linejoin="round" stroke-width="2"/>
        <path id="Shape_2_1_" d="M16.1,46.5l-.6-2.2A2.87,2.87,0,0,0,12.7,42H2" fill="none" stroke="#000" stroke-linecap="round" stroke-linejoin="round" stroke-width="2"/>
        <path id="Shape_3_1_" d="M42,33H33.9A2.9,2.9,0,0,0,31,35.3l-1.5,6a3.441,3.441,0,0,0,.5,2.6,3.132,3.132,0,0,0,2.4,1.2h3.2l.3,1.5" fill="none" stroke="#000" stroke-linecap="round" stroke-linejoin="round" stroke-width="2"/>
        <path id="Shape_4_1_" d="M24,7.5v-6" fill="none" stroke="#000" stroke-linecap="round" stroke-linejoin="round" stroke-width="2"/>
        <path id="Shape_5_1_" d="M15,7.5H34.5v9H15L10.5,12,15,7.5Z" fill="none" stroke="#000" stroke-linecap="round" stroke-linejoin="round" stroke-width="2"/>
        <path id="Shape_6_1_" d="M24,24V16.5" fill="none" stroke="#000" stroke-linecap="round" stroke-linejoin="round" stroke-width="2"/>
      </g>
    </g>
  </g>
</svg>
