<svg xmlns="http://www.w3.org/2000/svg" width="44" height="47" viewBox="0 0 44 47">
  <g id="Hotels-Spas__x2F__Hotel_x2F_Bedrooms__x2F__hotel_1_" transform="translate(-0.5 -0.5)">
    <g id="Group_16_1_">
      <g id="hotel_1_">
        <path id="Shape_92_1_" d="M43.5,19.5v27H1.5v-27" fill="none" stroke="#000" stroke-linecap="round" stroke-linejoin="round" stroke-width="2"/>
        <path id="Shape_93_1_" d="M43.5,19.5H1.5l5.3-8.4A3,3,0,0,1,9.7,9H35.4a2.88,2.88,0,0,1,2.8,2.1Z" fill="none" stroke="#000" stroke-linecap="round" stroke-linejoin="round" stroke-width="2"/>
        <path id="Shape_94_1_" d="M25.5,46.5h-6v-9a3,3,0,0,1,6,0Z" fill="none" stroke="#000" stroke-linecap="round" stroke-linejoin="round" stroke-width="2"/>
        <path id="Shape_95_1_" d="M7.5,25.5h6" fill="none" stroke="#000" stroke-linecap="round" stroke-linejoin="round" stroke-width="2"/>
        <path id="Shape_96_1_" d="M19.5,25.5h6" fill="none" stroke="#000" stroke-linecap="round" stroke-linejoin="round" stroke-width="2"/>
        <path id="Shape_97_1_" d="M31.5,25.5h6" fill="none" stroke="#000" stroke-linecap="round" stroke-linejoin="round" stroke-width="2"/>
        <path id="Rectangle-path_7_1_" d="M7.5,31.5h6v6h-6Z" fill="none" stroke="#000" stroke-linecap="round" stroke-linejoin="round" stroke-width="2"/>
        <path id="Rectangle-path_8_1_" d="M31.5,31.5h6v6h-6Z" fill="none" stroke="#000" stroke-linecap="round" stroke-linejoin="round" stroke-width="2"/>
        <path id="Rectangle-path_9_1_" d="M12,1.5h6V9H12Z" fill="none" stroke="#000" stroke-linecap="round" stroke-linejoin="round" stroke-width="2"/>
        <path id="Rectangle-path_10_1_" d="M33,9H27V1.5h6Z" fill="none" stroke="#000" stroke-linecap="round" stroke-linejoin="round" stroke-width="2"/>
      </g>
    </g>
  </g>
</svg>
