<svg xmlns="http://www.w3.org/2000/svg" width="16.511" height="24.03" viewBox="0 0 16.511 24.03">
  <g id="Food-Drinks__x2F__Cake-Candies__x2F__chocolate-bar_1_" transform="translate(0.05 -0.02)">
    <g id="Group_60_1_">
      <g id="Regular_60_1_">
        <path id="Shape_343_1_" d="M14.2,23.3H2.3A1.58,1.58,0,0,1,.7,21.7V14.3a1.538,1.538,0,0,1,1.5-1.5h12a1.538,1.538,0,0,1,1.5,1.5v7.4a1.558,1.558,0,0,1-1.5,1.6Z" fill="none" stroke="#000" stroke-linecap="round" stroke-linejoin="round" stroke-width="1.5"/>
        <path id="Shape_344_1_" d="M1.3,13.1l9,5.6a1.389,1.389,0,0,0,1.1.2,1.272,1.272,0,0,0,.9-.7l3-4.9" fill="none" stroke="#000" stroke-linecap="round" stroke-linejoin="round" stroke-width="1.5"/>
        <path id="Shape_345_1_" d="M12.6.8H3.9A1.58,1.58,0,0,0,2.3,2.4V12.8h12V2.4a1.606,1.606,0,0,0-.5-1.1A1.147,1.147,0,0,0,12.6.8Z" fill="none" stroke="#000" stroke-linecap="round" stroke-linejoin="round" stroke-width="1.5"/>
        <path id="Shape_346_1_" d="M8.2.8v12" fill="none" stroke="#000" stroke-linecap="round" stroke-linejoin="round" stroke-width="1.5"/>
        <path id="Shape_347_1_" d="M2.2,6.8h12" fill="none" stroke="#000" stroke-linecap="round" stroke-linejoin="round" stroke-width="1.5"/>
      </g>
    </g>
  </g>
</svg>
