<svg xmlns="http://www.w3.org/2000/svg" width="24.1" height="23.9" viewBox="0 0 24.1 23.9">
  <g id="Users__x2F__Geometric-Full-Body-Multiple-Users__x2F__multiple-circle_1_" transform="translate(0.05 -0.05)">
    <g id="Group_237_1_">
      <g id="Regular_237_1_">
        <path id="Oval_313_1_" d="M12,6.8a2.946,2.946,0,0,0,3-3,3,3,0,0,0-6,0A2.946,2.946,0,0,0,12,6.8Z" fill="none" stroke="#000" stroke-linecap="round" stroke-linejoin="round" stroke-width="1.5"/>
        <path id="Shape_961_1_" d="M15.8,14.2V12a3.8,3.8,0,1,0-7.6,0v2.2H9.7l.8,6h3l.8-6h1.5Z" fill="none" stroke="#000" stroke-linecap="round" stroke-linejoin="round" stroke-width="1.5"/>
        <path id="Oval_314_1_" d="M4.5,8.2A2.2,2.2,0,1,0,2.3,6,2.22,2.22,0,0,0,4.5,8.2Z" fill="none" stroke="#000" stroke-linecap="round" stroke-linejoin="round" stroke-width="1.5"/>
        <path id="Shape_962_1_" d="M5.7,9.9a3.776,3.776,0,0,0-3.4.5,3.657,3.657,0,0,0-1.6,3v.8H2.2L3,18.7H6l.4-2.3" fill="none" stroke="#000" stroke-linecap="round" stroke-linejoin="round" stroke-width="1.5"/>
        <path id="Oval_315_1_" d="M19.5,8.2A2.2,2.2,0,1,0,17.3,6,2.22,2.22,0,0,0,19.5,8.2Z" fill="none" stroke="#000" stroke-linecap="round" stroke-linejoin="round" stroke-width="1.5"/>
        <path id="Shape_963_1_" d="M18.3,9.9a3.776,3.776,0,0,1,3.4.5,3.657,3.657,0,0,1,1.6,3v.8H21.8L21,18.7H18l-.4-2.3" fill="none" stroke="#000" stroke-linecap="round" stroke-linejoin="round" stroke-width="1.5"/>
        <path id="Shape_964_1_" d="M23.2,21c0,1.2-5,2.2-11.2,2.2S.8,22.2.8,21" fill="none" stroke="#000" stroke-linecap="round" stroke-linejoin="round" stroke-width="1.5"/>
      </g>
    </g>
  </g>
</svg>
