<svg xmlns="http://www.w3.org/2000/svg" width="19.3" height="24.383" viewBox="0 0 19.3 24.383">
  <g id="Shopping-E-Commerce__x2F__Receipts__x2F__receipt-dollar_1_" transform="translate(-0.05 0.05)">
    <g id="Group_59_1_">
      <g id="receipt-dollar_1_">
        <path id="Shape_385_1_" d="M3.8,6.8h6" fill="none" stroke="#000" stroke-linecap="round" stroke-linejoin="round" stroke-width="1.5"/>
        <path id="Shape_386_1_" d="M3.8,11.2H7.6" fill="none" stroke="#000" stroke-linecap="round" stroke-linejoin="round" stroke-width="1.5"/>
        <path id="Shape_387_1_" d="M3.8,15.8H7.6" fill="none" stroke="#000" stroke-linecap="round" stroke-linejoin="round" stroke-width="1.5"/>
        <path id="Shape_388_1_" d="M14.2,6.8h1.5" fill="none" stroke="#000" stroke-linecap="round" stroke-linejoin="round" stroke-width="1.5"/>
        <path id="Shape_389_1_" d="M11.6,16.6a2.2,2.2,0,0,0,1.9.9c1.1,0,2.1-.7,2.1-1.5s-.9-1.5-2.1-1.5-2.1-.7-2.1-1.5c0-.9.9-1.5,2.1-1.5a2.463,2.463,0,0,1,1.9.9" fill="none" stroke="#000" stroke-linecap="round" stroke-linejoin="round" stroke-width="1.5"/>
        <path id="Shape_390_1_" d="M13.5,17.4v1" fill="none" stroke="#000" stroke-linecap="round" stroke-linejoin="round" stroke-width="1.5"/>
        <path id="Shape_391_1_" d="M13.5,10.2v1" fill="none" stroke="#000" stroke-linecap="round" stroke-linejoin="round" stroke-width="1.5"/>
        <path id="Shape_392_1_" d="M14.2,23.2a2.606,2.606,0,0,1,2.2-1.3,2.485,2.485,0,0,1,2.2,1.3V.8A2.318,2.318,0,0,1,16.5,2,2.485,2.485,0,0,1,14.3.7,2.772,2.772,0,0,1,12,2,2.485,2.485,0,0,1,9.8.7,2.772,2.772,0,0,1,7.5,2,2.935,2.935,0,0,1,5.2.8,2.609,2.609,0,0,1,3,2,2.609,2.609,0,0,1,.8.8V23.3A2.308,2.308,0,0,1,3,22a2.485,2.485,0,0,1,2.2,1.3A2.556,2.556,0,0,1,7.5,22a2.485,2.485,0,0,1,2.2,1.3" fill="none" stroke="#000" stroke-linecap="round" stroke-linejoin="round" stroke-width="1.5"/>
        <path id="Shape_393_1_" d="M9.8,23.3A2.606,2.606,0,0,1,12,22a2.485,2.485,0,0,1,2.2,1.3" fill="none" stroke="#000" stroke-linecap="round" stroke-linejoin="round" stroke-width="1.5"/>
      </g>
    </g>
  </g>
</svg>
