<svg xmlns="http://www.w3.org/2000/svg" width="19.5" height="23.9" viewBox="0 0 19.5 23.9">
  <g id="Food-Drinks__x2F__Coffee__x2F__coffee-to-go_1_" transform="translate(-0.05 -0.05)">
    <g id="Group_270_1_">
      <g id="Regular_270_1_">
        <path id="Rectangle-path_60_1_" d="M.8,5.2A1.538,1.538,0,0,1,2.3,3.7h15a1.538,1.538,0,0,1,1.5,1.5V6.7a1.538,1.538,0,0,1-1.5,1.5H2.3A1.538,1.538,0,0,1,.8,6.7V5.2Z" fill="none" stroke="#000" stroke-linecap="round" stroke-linejoin="round" stroke-width="1.5"/>
        <path id="Shape_1440_1_" d="M15.9,21.9a1.435,1.435,0,0,1-1.5,1.3H5.1a1.514,1.514,0,0,1-1.5-1.3L2.2,8.2h15Z" fill="none" stroke="#000" stroke-linecap="round" stroke-linejoin="round" stroke-width="1.5"/>
        <path id="Shape_1441_1_" d="M16.2,1.6A1.561,1.561,0,0,0,14.9.8H4.7a1.34,1.34,0,0,0-1.3.8L2.2,3.8h15Z" fill="none" stroke="#000" stroke-linecap="round" stroke-linejoin="round" stroke-width="1.5"/>
        <path id="Oval_103_1_" d="M9.8,18.8a3,3,0,0,0,0-6,2.946,2.946,0,0,0-3,3A3.009,3.009,0,0,0,9.8,18.8Z" fill="none" stroke="#000" stroke-linecap="round" stroke-linejoin="round" stroke-width="1.5"/>
      </g>
    </g>
  </g>
</svg>
