<?xml version="1.0" encoding="utf-8"?>
<!-- Generator: Adobe Illustrator 16.0.0, SVG Export Plug-In . SVG Version: 6.00 Build 0)  -->
<!DOCTYPE svg PUBLIC "-//W3C//DTD SVG 1.1//EN" "http://www.w3.org/Graphics/SVG/1.1/DTD/svg11.dtd">
<svg version="1.1" id="Capa_1" xmlns="http://www.w3.org/2000/svg" xmlns:xlink="http://www.w3.org/1999/xlink" x="0px" y="0px"
	 width="24.1px" height="22.457px" viewBox="0 0 24.1 22.457" enable-background="new 0 0 24.1 22.457" xml:space="preserve">
<g id="Interface-Essential__x2F__View__x2F__binocular_1_" transform="translate(0.05 0.006)">
	<g id="Group_330_1_">
		<g id="binocular_1_">
			<path id="Oval_197_1_" fill="none" stroke="#000000" stroke-width="1.5" stroke-linecap="round" stroke-linejoin="round" d="
				M5.2,21.701c2.485,0,4.5-2.016,4.5-4.5c0-2.486-2.015-4.5-4.5-4.5s-4.5,2.014-4.5,4.5l0,0C0.725,19.675,2.725,21.675,5.2,21.701z
				"/>
			<path id="Shape_1532_1_" fill="none" stroke="#000000" stroke-width="1.5" stroke-linecap="round" stroke-linejoin="round" d="
				M9.8,17.3V3.4C9.774,2.086,8.801,0.985,7.5,0.8C6.187,0.583,4.926,1.409,4.6,2.7L0.9,16.1"/>
			<path id="Oval_198_1_" fill="none" stroke="#000000" stroke-width="1.5" stroke-linecap="round" stroke-linejoin="round" d="
				M18.8,21.701c2.485,0,4.5-2.016,4.5-4.5c0-2.486-2.015-4.5-4.5-4.5s-4.5,2.014-4.5,4.5c-0.011,2.475,1.987,4.488,4.462,4.5
				C18.774,21.701,18.787,21.701,18.8,21.701z"/>
			<path id="Shape_1533_1_" fill="none" stroke="#000000" stroke-width="1.5" stroke-linecap="round" stroke-linejoin="round" d="
				M14.2,17.3V3.4c0.024-1.314,0.999-2.415,2.3-2.6c1.308-0.188,2.551,0.626,2.9,1.9L23.1,16.1"/>
			
				<path id="Rectangle-path_94_1_" fill="none" stroke="#000000" stroke-width="1.5" stroke-linecap="round" stroke-linejoin="round" d="
				M9.8,8.2h4.5v3H9.8V8.2z"/>
		</g>
	</g>
</g>
</svg>
