<svg xmlns="http://www.w3.org/2000/svg" width="18.1" height="23.9" viewBox="0 0 18.1 23.9">
  <g id="Interface-Essential__x2F__Lock_x2F_Unlock__x2F__lock-password_1_" transform="translate(0.05 -0.05)">
    <g id="Group_129_1_">
      <g id="lock-password_1_">
        <path id="Rectangle-path_49_1_" d="M.8,11.2A1.538,1.538,0,0,1,2.3,9.7H15.8a1.538,1.538,0,0,1,1.5,1.5V21.7a1.538,1.538,0,0,1-1.5,1.5H2.2A1.538,1.538,0,0,1,.7,21.7V11.2Z" fill="none" stroke="#000" stroke-linecap="round" stroke-linejoin="round" stroke-width="1.5"/>
        <path id="Shape_616_1_" d="M3.8,9.8V6A5.2,5.2,0,0,1,14.2,6V9.8" fill="none" stroke="#000" stroke-linecap="round" stroke-linejoin="round" stroke-width="1.5"/>
        <path id="Shape_617_1_" d="M5.6,14.2a.4.4,0,1,0,0,.8.4.4,0,1,0,0-.8h0" fill="none" stroke="#000" stroke-linecap="round" stroke-linejoin="round" stroke-width="1.5"/>
        <path id="Shape_618_1_" d="M9,14.2a.4.4,0,1,0,.4.4.43.43,0,0,0-.4-.4H9" fill="none" stroke="#000" stroke-linecap="round" stroke-linejoin="round" stroke-width="1.5"/>
        <path id="Shape_619_1_" d="M12.4,14.2a.4.4,0,1,0,.4.4.43.43,0,0,0-.4-.4h0" fill="none" stroke="#000" stroke-linecap="round" stroke-linejoin="round" stroke-width="1.5"/>
        <path id="Shape_620_1_" d="M5.6,18a.4.4,0,1,0,0,.8.4.4,0,1,0,0-.8h0" fill="none" stroke="#000" stroke-linecap="round" stroke-linejoin="round" stroke-width="1.5"/>
        <path id="Shape_621_1_" d="M9,18a.4.4,0,1,0,.4.4A.43.43,0,0,0,9,18H9" fill="none" stroke="#000" stroke-linecap="round" stroke-linejoin="round" stroke-width="1.5"/>
        <path id="Shape_622_1_" d="M12.4,18a.4.4,0,1,0,.4.4.43.43,0,0,0-.4-.4h0" fill="none" stroke="#000" stroke-linecap="round" stroke-linejoin="round" stroke-width="1.5"/>
      </g>
    </g>
  </g>
</svg>
