<svg xmlns="http://www.w3.org/2000/svg" width="24" height="24" viewBox="0 0 24 24">
  <g id="Hotels-Spas__x2F__Reception__x2F__reception-hotel-bell_1_" transform="translate(-0.05 0.05)">
    <g id="Group_24_1_">
      <g id="reception-hotel-bell_1_">
        <path id="Shape_151_1_" d="M13.5,14.3a5.953,5.953,0,0,0-6-5.2,6.07,6.07,0,0,0-6,5.5" fill="none" stroke="#000" stroke-linecap="round" stroke-linejoin="round" stroke-width="1.5"/>
        <path id="Shape_152_1_" d="M10.9,4.1a3.4,3.4,0,1,1-6.8,0V1.5A.789.789,0,0,1,4.9.7h5.2a.789.789,0,0,1,.8.8V4.1Z" fill="none" stroke="#000" stroke-linecap="round" stroke-linejoin="round" stroke-width="1.5"/>
        <path id="Shape_153_1_" d="M23.2,23.2H.8V15.7a1.538,1.538,0,0,1,1.5-1.5H21.8a1.538,1.538,0,0,1,1.5,1.5v7.5Z" fill="none" stroke="#000" stroke-linecap="round" stroke-linejoin="round" stroke-width="1.5"/>
        <path id="Shape_154_1_" d="M4.1,4.3a9.737,9.737,0,0,1,3.4-.6,10.158,10.158,0,0,1,3.4.6" fill="none" stroke="#000" stroke-linecap="round" stroke-linejoin="round" stroke-width="1.5"/>
        <path id="Shape_155_1_" d="M15,14.3a3.678,3.678,0,0,1,2-3.2,3.95,3.95,0,0,1,3.8.1,3.994,3.994,0,0,1,1.8,3.3" fill="none" stroke="#000" stroke-linecap="round" stroke-linejoin="round" stroke-width="1.5"/>
        <path id="Shape_156_1_" d="M18.8,10.5V8.2" fill="none" stroke="#000" stroke-linecap="round" stroke-linejoin="round" stroke-width="1.5"/>
        <path id="Shape_157_1_" d="M17.2,8.2h3" fill="none" stroke="#000" stroke-linecap="round" stroke-linejoin="round" stroke-width="1.5"/>
      </g>
    </g>
  </g>
</svg>
