<svg xmlns="http://www.w3.org/2000/svg" width="47.414" height="45.7" viewBox="0 0 47.414 45.7">
  <g id="Hotels-Spas__x2F__Room-Service__x2F__room-service-bring-plate_1_" transform="translate(-0.086 -0.5)">
    <g id="Group_28_1_">
      <g id="room-service-bring-plate_1_">
        <path id="Shape_179_1_" d="M7.5,22.5a18,18,0,0,1,36,0Z" fill="none" stroke="#000" stroke-linecap="round" stroke-linejoin="round" stroke-width="2"/>
        <path id="Shape_180_1_" d="M4.5,22.5h42" fill="none" stroke="#000" stroke-linecap="round" stroke-linejoin="round" stroke-width="2"/>
        <path id="Shape_181_1_" d="M25.5,1.5v3" fill="none" stroke="#000" stroke-linecap="round" stroke-linejoin="round" stroke-width="2"/>
        <path id="Shape_182_1_" d="M1.5,43.5,9,36.2l10.5,9L43.6,27.8a2.61,2.61,0,0,0,1-2,2.367,2.367,0,0,0-1.1-1.9h0a9.043,9.043,0,0,0-9-.2L28.6,27a9.383,9.383,0,0,1-10.9-1.5l-1.2-1.2a5.921,5.921,0,0,0-6.9-1.1h0a1.6,1.6,0,0,0-.9,1.3A1.741,1.741,0,0,0,9.2,26l.9.9A9.315,9.315,0,0,1,12.6,35l-.7,3.7" fill="none" stroke="#000" stroke-linecap="round" stroke-linejoin="round" stroke-width="2"/>
      </g>
    </g>
  </g>
</svg>
