<svg xmlns="http://www.w3.org/2000/svg" width="47.033" height="47.491" viewBox="0 0 47.033 47.491">
  <g id="Social-Medias-Rewards-Rating__x2F__Social-Profile__x2F__social-profile-click_1_" transform="translate(-0.5 -0.5)">
    <g id="Group_3_1_">
      <g id="social-profile-click_1_">
        <path id="Shape_6_1_" d="M46.3,46.5l.2-2.2a5.98,5.98,0,0,0-4.7-6.4l-7.3-1.6V24.8a3.75,3.75,0,1,0-7.5,0V43.2L24,41a3.075,3.075,0,0,0-4.3,4.3l.9,1.3" fill="none" stroke="#000" stroke-linecap="round" stroke-linejoin="round" stroke-width="2"/>
        <path id="Shape_7_1_" d="M43.5,31.5V4.5a2.946,2.946,0,0,0-3-3H4.5a2.946,2.946,0,0,0-3,3v33a2.946,2.946,0,0,0,3,3h9" fill="none" stroke="#000" stroke-linecap="round" stroke-linejoin="round" stroke-width="2"/>
        <path id="Shape_8_1_" d="M1.5,10.5h42" fill="none" stroke="#000" stroke-linecap="round" stroke-linejoin="round" stroke-width="2"/>
        <path id="Rectangle-path_1_" d="M7.5,18A1.538,1.538,0,0,1,9,16.5h9A1.538,1.538,0,0,1,19.5,18v9A1.538,1.538,0,0,1,18,28.5H9A1.538,1.538,0,0,1,7.5,27Z" fill="none" stroke="#000" stroke-linecap="round" stroke-linejoin="round" stroke-width="2"/>
        <path id="Shape_9_1_" d="M7.5,34.5h12" fill="none" stroke="#000" stroke-linecap="round" stroke-linejoin="round" stroke-width="2"/>
        <path id="Shape_10_1_" d="M25.5,16.5h12" fill="none" stroke="#000" stroke-linecap="round" stroke-linejoin="round" stroke-width="2"/>
      </g>
    </g>
  </g>
</svg>
