<svg xmlns="http://www.w3.org/2000/svg" width="24.1" height="24.1" viewBox="0 0 24.1 24.1">
  <g id="Interface-Essential__x2F__FaceID__x2F__face-id-5_1_" transform="translate(0.05 0.05)">
    <g id="Group_86_1_">
      <g id="face-id-5_1_">
        <path id="Shape_414_1_" d="M23.2,18.8v3a1.538,1.538,0,0,1-1.5,1.5h-3" fill="none" stroke="#000" stroke-linecap="round" stroke-linejoin="round" stroke-width="1.5"/>
        <path id="Shape_415_1_" d="M18.8.8h3a1.538,1.538,0,0,1,1.5,1.5v3" fill="none" stroke="#000" stroke-linecap="round" stroke-linejoin="round" stroke-width="1.5"/>
        <path id="Shape_416_1_" d="M.8,5.2v-3A1.538,1.538,0,0,1,2.3.7h3" fill="none" stroke="#000" stroke-linecap="round" stroke-linejoin="round" stroke-width="1.5"/>
        <path id="Shape_417_1_" d="M5.2,23.2h-3A1.538,1.538,0,0,1,.7,21.7v-3" fill="none" stroke="#000" stroke-linecap="round" stroke-linejoin="round" stroke-width="1.5"/>
        <path id="Shape_418_1_" d="M8.4,6.5A6.593,6.593,0,0,0,16,8" fill="none" stroke="#000" stroke-linecap="round" stroke-linejoin="round" stroke-width="1.5"/>
        <path id="Oval_48_1_" d="M12,12.8a4.055,4.055,0,0,0,4.1-4.1A4.14,4.14,0,0,0,12,4.5,4.055,4.055,0,0,0,7.9,8.6,4.14,4.14,0,0,0,12,12.8Z" fill="none" stroke="#000" stroke-linecap="round" stroke-linejoin="round" stroke-width="1.5"/>
        <path id="Shape_419_1_" d="M18.8,19.5a7.012,7.012,0,0,0-13.6,0" fill="none" stroke="#000" stroke-linecap="round" stroke-linejoin="round" stroke-width="1.5"/>
      </g>
    </g>
  </g>
</svg>
