<svg xmlns="http://www.w3.org/2000/svg" width="24.1" height="23.9" viewBox="0 0 24.1 23.9">
  <g id="Hotels-Spas__x2F__Barthroom__x2F__bathroom-tub-towel_1_" transform="translate(0.05 -0.05)">
    <g id="Group_54_1_">
      <g id="bathroom-tub-towel_1_">
        <path id="Shape_352_1_" d="M12.8,14.2H23.3l-.7,4a6,6,0,0,1-5.9,5H7.3a6,6,0,0,1-5.9-5l-.7-4H5.2" fill="none" stroke="#000" stroke-linecap="round" stroke-linejoin="round" stroke-width="1.5"/>
        <path id="Shape_353_1_" d="M12,20.2H6a.789.789,0,0,1-.8-.8V14.2a1.538,1.538,0,0,1,1.5-1.5h4.5a1.538,1.538,0,0,1,1.5,1.5v5.2A.666.666,0,0,1,12,20.2Z" fill="none" stroke="#000" stroke-linecap="round" stroke-linejoin="round" stroke-width="1.5"/>
        <path id="Shape_354_1_" d="M15.8,3.8a3,3,0,1,1,6,0V14.3" fill="none" stroke="#000" stroke-linecap="round" stroke-linejoin="round" stroke-width="1.5"/>
        <path id="Shape_355_1_" d="M12.8,6.8a3,3,0,1,1,6,0Z" fill="none" stroke="#000" stroke-linecap="round" stroke-linejoin="round" stroke-width="1.5"/>
      </g>
    </g>
  </g>
</svg>
