<svg xmlns="http://www.w3.org/2000/svg" width="24" height="24" viewBox="0 0 24 24">
  <g id="Group_221" data-name="Group 221" transform="translate(-207.005 -2403)">
    <g id="time-clock-nine">
      <path id="Shape_964" data-name="Shape 964" d="M219.005,2403.75c-.253,0-.5.022-.75.038v10.462H207.793c-.017.249-.038.5-.038.75a11.25,11.25,0,1,0,11.25-11.25Z" fill="none" stroke="#000" stroke-linecap="round" stroke-linejoin="round" stroke-width="1.5"/>
      <path id="Shape_965" data-name="Shape 965" d="M226.88,2414.62a.375.375,0,1,0,.375.375.375.375,0,0,0-.375-.375h0" fill="none" stroke="#000" stroke-linecap="round" stroke-linejoin="round" stroke-width="1.5"/>
      <path id="Shape_966" data-name="Shape 966" d="M224.573,2409.06a.369.369,0,0,0-.265.11.375.375,0,1,0,.265-.11h0" fill="none" stroke="#000" stroke-linecap="round" stroke-linejoin="round" stroke-width="1.5"/>
      <path id="Shape_967" data-name="Shape 967" d="M224.573,2420.19a.365.365,0,0,0-.265.11.375.375,0,1,0,.265-.11h0" fill="none" stroke="#000" stroke-linecap="round" stroke-linejoin="round" stroke-width="1.5"/>
      <path id="Shape_968" data-name="Shape 968" d="M219.005,2422.5a.375.375,0,1,0,.375.375.375.375,0,0,0-.375-.375h0" fill="none" stroke="#000" stroke-linecap="round" stroke-linejoin="round" stroke-width="1.5"/>
      <path id="Shape_969" data-name="Shape 969" d="M213.705,2420.3a.374.374,0,0,0-.265-.11h0a.375.375,0,1,0,.265.11" fill="none" stroke="#000" stroke-linecap="round" stroke-linejoin="round" stroke-width="1.5"/>
    </g>
  </g>
</svg>
